# xmcd CD database file
#
# Track frame offsets:
#	150
#	17531
#	36242
#	51962
#	71880
#	92199
#	109910
#	132511
#	148797
#	166561
#	187340
#	201156
#	222200
#	254660
#	261860
#	282617
#	291016
#	304842
#	325839
#	339753
#
# Disc length: 4787 seconds
#
# Revision: 0
# Processed by: cddbd v1.5.2PL0 Copyright (c) Steve Scherf et al.
# Submitted via: CDex 1.51
#
DISCID=4212b114
DTITLE=Cuban Artists - Cuban Journeys CD 2
DYEAR=2008
DGENRE=Salsa
TTITLE0=Latin Way [Soul Beat Mix] 
TTITLE1=Tango Nuevo 
TTITLE2=Cuba Libra [Dancehall Mix] 
TTITLE3=Sol 
TTITLE4=Venue of Love 
TTITLE5=Canyengue
TTITLE6=Ballroom Tango 
TTITLE7=Devoto 
TTITLE8=Dance Hall Fire [Cayo Grande Mix] 
TTITLE9=Quick Hold 
TTITLE10=Look of Love 
TTITLE11=Setting Sun [Mojito Mix] 
TTITLE12=Abrazo
TTITLE13=Caminata
TTITLE14=Volcada [Carib Mix] 
TTITLE15=Close Embrace 
TTITLE16=Lapiz [360 Mix]
TTITLE17=Waters Run Deep
TTITLE18=Spin [Network Mix] 
TTITLE19=Last Tango [Fair Mix] 
EXTD=YEAR: 2008
EXTT0=
EXTT1=
EXTT2=
EXTT3=
EXTT4=
EXTT5=
EXTT6=
EXTT7=
EXTT8=
EXTT9=
EXTT10=
EXTT11=
EXTT12=
EXTT13=
EXTT14=
EXTT15=
EXTT16=
EXTT17=
EXTT18=
EXTT19=
PLAYORDER=
